<svg width="20" height="21" viewBox="0 0 20 21" fill="none" xmlns="http://www.w3.org/2000/svg">
<path id="Vector" fill-rule="evenodd" clip-rule="evenodd" d="M0.741468 9.35876C0.506398 9.59792 0.319926 9.88186 0.192704 10.1944C0.0654811 10.5069 0 10.8418 0 11.1801C0 11.5184 0.0654811 11.8533 0.192704 12.1658C0.319926 12.4783 0.506398 12.7623 0.741468 13.0014L3.60523 15.9147C3.98085 16.2966 4.46498 16.5486 4.9891 16.6351C5.51323 16.7215 6.05079 16.638 6.52569 16.3963C7.00059 16.1547 7.38878 15.7672 7.63531 15.2886C7.88184 14.81 7.97422 14.2647 7.89937 13.7298L8.88432 12.7274L15.037 19.953C15.2914 20.2514 15.6034 20.4932 15.9536 20.6635C16.3038 20.8339 16.6847 20.929 17.0726 20.943C17.4605 20.9569 17.8471 20.8895 18.2082 20.7448C18.5694 20.6001 18.8974 20.3813 19.1719 20.102C19.4464 19.8227 19.6614 19.4889 19.8035 19.1214C19.9457 18.7538 20.012 18.3604 19.9982 17.9657C19.9845 17.5709 19.891 17.1833 19.7237 16.8269C19.5563 16.4705 19.3186 16.153 19.0254 15.8941L11.9263 9.63176L12.9102 8.63043C13.4361 8.70689 13.9722 8.61302 14.4428 8.36211C14.9133 8.11121 15.2943 7.71599 15.5318 7.23245C15.7693 6.74892 15.8513 6.20158 15.7661 5.66799C15.681 5.1344 15.433 4.64161 15.0573 4.25944L12.1945 1.34716C11.8189 0.964704 11.3346 0.712253 10.8101 0.625586C10.2857 0.538918 9.7477 0.622432 9.27249 0.86429C8.79728 1.10615 8.40893 1.49408 8.16247 1.9731C7.91602 2.45212 7.82397 2.99793 7.89937 3.53317L2.88853 8.63146C2.49981 8.5748 2.10346 8.61112 1.73093 8.73755C1.35841 8.86398 1.01997 9.07703 0.74248 9.35979M11.1215 7.53846L6.82735 11.9084L4.67927 9.72344L8.97442 5.35245L11.1215 7.53846ZM2.17284 11.5448C2.12579 11.497 2.08844 11.4402 2.06295 11.3777C2.03746 11.3151 2.02431 11.2481 2.02426 11.1805C2.02422 11.1128 2.03727 11.0458 2.06268 10.9832C2.08808 10.9207 2.12535 10.8638 2.17234 10.8159C2.21933 10.768 2.27513 10.73 2.33656 10.7041C2.39798 10.6782 2.46383 10.6648 2.53033 10.6647C2.59684 10.6647 2.6627 10.678 2.72416 10.7038C2.78562 10.7297 2.84147 10.7676 2.88853 10.8154L5.7523 13.7298C5.80064 13.7773 5.8392 13.8341 5.86573 13.897C5.89225 13.9598 5.90622 14.0274 5.9068 14.0958C5.90739 14.1642 5.89458 14.232 5.86913 14.2953C5.84368 14.3586 5.8061 14.4161 5.75857 14.4645C5.71105 14.5128 5.65454 14.5511 5.59233 14.577C5.53013 14.6029 5.46348 14.6159 5.39628 14.6153C5.32907 14.6147 5.26266 14.6005 5.2009 14.5735C5.13915 14.5465 5.0833 14.5073 5.03661 14.4581L2.17284 11.5448ZM10.0464 3.53111C9.99809 3.4836 9.95953 3.42676 9.933 3.36392C9.90648 3.30108 9.89252 3.23349 9.89193 3.16509C9.89135 3.0967 9.90415 3.02888 9.9296 2.96557C9.95505 2.90227 9.99263 2.84476 10.0402 2.7964C10.0877 2.74804 10.1442 2.70979 10.2064 2.68389C10.2686 2.65799 10.3352 2.64496 10.4025 2.64555C10.4697 2.64615 10.5361 2.66036 10.5978 2.68735C10.6596 2.71435 10.7154 2.75359 10.7621 2.80278L13.6259 5.71712C13.6742 5.76464 13.7128 5.82148 13.7393 5.88432C13.7658 5.94716 13.7798 6.01475 13.7804 6.08314C13.781 6.15153 13.7682 6.21936 13.7427 6.28266C13.7173 6.34596 13.6797 6.40347 13.6322 6.45184C13.5846 6.5002 13.5281 6.53844 13.4659 6.56434C13.4037 6.59024 13.3371 6.60328 13.2699 6.60268C13.2027 6.60209 13.1362 6.58788 13.0745 6.56088C13.0127 6.53389 12.9569 6.49465 12.9102 6.44545L10.0464 3.53111ZM16.5676 18.6035L10.4858 11.4624L10.6821 11.2615L17.7004 17.4507C17.7812 17.525 17.8463 17.6151 17.8918 17.7158C17.9373 17.8165 17.9622 17.9255 17.965 18.0363C17.9678 18.147 17.9484 18.2572 17.9081 18.3601C17.8677 18.463 17.8072 18.5565 17.7302 18.6348C17.6532 18.7132 17.5613 18.7748 17.4602 18.8159C17.3591 18.857 17.2508 18.8767 17.142 18.8738C17.0331 18.871 16.926 18.8457 16.8271 18.7994C16.7282 18.7531 16.6395 18.6868 16.5666 18.6045" fill="#545454"/>
</svg>
