<svg width="20" height="15" viewBox="0 0 20 15" fill="none" xmlns="http://www.w3.org/2000/svg">
<path id="Vector" d="M13.75 9.9172C13.5511 9.9172 13.3603 9.99761 13.2197 10.1407C13.079 10.2839 13 10.478 13 10.6804C13 10.8828 13.079 11.077 13.2197 11.2201C13.3603 11.3632 13.5511 11.4436 13.75 11.4436H16.25C16.4489 11.4436 16.6397 11.3632 16.7803 11.2201C16.921 11.077 17 10.8828 17 10.6804C17 10.478 16.921 10.2839 16.7803 10.1407C16.6397 9.99761 16.4489 9.9172 16.25 9.9172H13.75ZM0 3.55704C0 2.67989 0.34241 1.83867 0.951903 1.21844C1.5614 0.598201 2.38805 0.249756 3.25 0.249756H16.75C17.1768 0.249756 17.5994 0.335301 17.9937 0.501508C18.388 0.667715 18.7463 0.911327 19.0481 1.21844C19.3499 1.52555 19.5893 1.89014 19.7526 2.2914C19.9159 2.69266 20 3.12272 20 3.55704V11.1892C20 11.6236 19.9159 12.0536 19.7526 12.4549C19.5893 12.8561 19.3499 13.2207 19.0481 13.5278C18.7463 13.8349 18.388 14.0786 17.9937 14.2448C17.5994 14.411 17.1768 14.4965 16.75 14.4965H3.25C2.38805 14.4965 1.5614 14.1481 0.951903 13.5278C0.34241 12.9076 0 12.0664 0 11.1892V3.55704ZM18.5 4.82907V3.55704C18.5 3.08473 18.3156 2.63177 17.9874 2.29779C17.6592 1.96382 17.2141 1.77619 16.75 1.77619H3.25C2.78587 1.77619 2.34075 1.96382 2.01256 2.29779C1.68437 2.63177 1.5 3.08473 1.5 3.55704V4.82907H18.5ZM1.5 6.35551V11.1892C1.5 12.1723 2.284 12.9701 3.25 12.9701H16.75C17.2141 12.9701 17.6592 12.7825 17.9874 12.4485C18.3156 12.1145 18.5 11.6615 18.5 11.1892V6.35551H1.5Z" fill="#545454"/>
</svg>
