<svg width="20" height="21" viewBox="0 0 20 21" fill="none" xmlns="http://www.w3.org/2000/svg">
<g id="Group 39">
<path id="Vector" fill-rule="evenodd" clip-rule="evenodd" d="M13.636 8.043C13.636 9.02443 13.2529 9.96565 12.5709 10.6596C11.889 11.3536 10.9641 11.7435 9.99965 11.7435C9.03522 11.7435 8.1103 11.3536 7.42835 10.6596C6.7464 9.96565 6.36328 9.02443 6.36328 8.043C6.36328 7.06157 6.7464 6.12034 7.42835 5.42637C8.1103 4.7324 9.03522 4.34253 9.99965 4.34253C10.9641 4.34253 11.889 4.7324 12.5709 5.42637C13.2529 6.12034 13.636 7.06157 13.636 8.043ZM11.8178 8.043C11.8178 8.53371 11.6263 9.00433 11.2853 9.35131C10.9443 9.6983 10.4819 9.89323 9.99965 9.89323C9.51743 9.89323 9.05497 9.6983 8.714 9.35131C8.37302 9.00433 8.18146 8.53371 8.18146 8.043C8.18146 7.55229 8.37302 7.08167 8.714 6.73469C9.05497 6.3877 9.51743 6.19276 9.99965 6.19276C10.4819 6.19276 10.9443 6.3877 11.2853 6.73469C11.6263 7.08167 11.8178 7.55229 11.8178 8.043Z" fill="#545454"/>
<path id="Vector_2" fill-rule="evenodd" clip-rule="evenodd" d="M10 0.64209C4.47727 0.64209 0 5.19827 0 10.8183C0 16.4384 4.47727 20.9946 10 20.9946C15.5227 20.9946 20 16.4384 20 10.8183C20 5.19827 15.5227 0.64209 10 0.64209ZM1.81818 10.8183C1.81818 12.7518 2.46636 14.5317 3.55273 15.9453C4.31566 14.9257 5.29991 14.0995 6.42858 13.531C7.55724 12.9626 8.79977 12.6674 10.0591 12.6686C11.3021 12.6674 12.529 12.9549 13.6463 13.5093C14.7636 14.0637 15.7418 14.8703 16.5064 15.8676C17.294 14.8163 17.8244 13.5892 18.0535 12.288C18.2827 10.9867 18.204 9.64856 17.8241 8.38434C17.4441 7.12013 16.7738 5.96616 15.8686 5.01791C14.9634 4.06966 13.8493 3.35439 12.6185 2.93129C11.3877 2.50819 10.0756 2.38942 8.79078 2.5848C7.50593 2.78019 6.28526 3.28411 5.22979 4.05488C4.17432 4.82565 3.31437 5.8411 2.72112 7.01722C2.12786 8.19334 1.81835 9.49631 1.81818 10.8183ZM10 19.1443C8.12177 19.1472 6.30024 18.4897 4.84364 17.283C5.42994 16.4289 6.21031 15.7315 7.11836 15.2503C8.02641 14.769 9.03526 14.518 10.0591 14.5188C11.0701 14.518 12.0668 14.7626 12.9663 15.2324C13.8658 15.7023 14.6422 16.3837 15.2309 17.2201C13.763 18.466 11.9114 19.1471 10 19.1443Z" fill="#545454"/>
</g>
</svg>
