<svg width="20" height="21" viewBox="0 0 20 21" fill="none" xmlns="http://www.w3.org/2000/svg">
<g id="Group 37">
<g id="Group 13">
<path id="Vector" d="M1.87494 5.27051C2.91044 5.27051 3.74988 4.13149 3.74988 2.72644C3.74988 1.32139 2.91044 0.182373 1.87494 0.182373C0.83944 0.182373 0 1.32139 0 2.72644C0 4.13149 0.83944 5.27051 1.87494 5.27051Z" fill="#545454"/>
<path id="Vector_2" d="M1.87494 12.9026C2.91044 12.9026 3.74988 11.7636 3.74988 10.3585C3.74988 8.95347 2.91044 7.81445 1.87494 7.81445C0.83944 7.81445 0 8.95347 0 10.3585C0 11.7636 0.83944 12.9026 1.87494 12.9026Z" fill="#545454"/>
<path id="Vector_3" d="M1.87494 20.5349C2.91044 20.5349 3.74988 19.3959 3.74988 17.9908C3.74988 16.5858 2.91044 15.4468 1.87494 15.4468C0.83944 15.4468 0 16.5858 0 17.9908C0 19.3959 0.83944 20.5349 1.87494 20.5349Z" fill="#545454"/>
</g>
<g id="Group 14">
<path id="Vector_4" fill-rule="evenodd" clip-rule="evenodd" d="M5.00098 1.0304C5.00098 0.805486 5.06682 0.589788 5.18403 0.430753C5.30124 0.271718 5.4602 0.182373 5.62596 0.182373H19.3755C19.5413 0.182373 19.7002 0.271718 19.8175 0.430753C19.9347 0.589788 20.0005 0.805486 20.0005 1.0304C20.0005 1.25531 19.9347 1.471 19.8175 1.63004C19.7002 1.78907 19.5413 1.87842 19.3755 1.87842H5.62596C5.4602 1.87842 5.30124 1.78907 5.18403 1.63004C5.06682 1.471 5.00098 1.25531 5.00098 1.0304ZM5.00098 4.42249C5.00098 4.19758 5.06682 3.98188 5.18403 3.82284C5.30124 3.66381 5.4602 3.57446 5.62596 3.57446H13.1257C13.2915 3.57446 13.4504 3.66381 13.5676 3.82284C13.6849 3.98188 13.7507 4.19758 13.7507 4.42249C13.7507 4.6474 13.6849 4.86309 13.5676 5.02213C13.4504 5.18116 13.2915 5.27051 13.1257 5.27051H5.62596C5.4602 5.27051 5.30124 5.18116 5.18403 5.02213C5.06682 4.86309 5.00098 4.6474 5.00098 4.42249Z" fill="#545454"/>
<path id="Vector_5" fill-rule="evenodd" clip-rule="evenodd" d="M5.00098 8.66248C5.00098 8.43757 5.06682 8.22187 5.18403 8.06283C5.30124 7.9038 5.4602 7.81445 5.62596 7.81445H15.6256C15.7914 7.81445 15.9504 7.9038 16.0676 8.06283C16.1848 8.22187 16.2506 8.43757 16.2506 8.66248C16.2506 8.88739 16.1848 9.10308 16.0676 9.26212C15.9504 9.42115 15.7914 9.5105 15.6256 9.5105H5.62596C5.4602 9.5105 5.30124 9.42115 5.18403 9.26212C5.06682 9.10308 5.00098 8.88739 5.00098 8.66248ZM5.00098 12.0546C5.00098 11.8297 5.06682 11.614 5.18403 11.4549C5.30124 11.2959 5.4602 11.2065 5.62596 11.2065H14.3757C14.5414 11.2065 14.7004 11.2959 14.8176 11.4549C14.9348 11.614 15.0007 11.8297 15.0007 12.0546C15.0007 12.2795 14.9348 12.4952 14.8176 12.6542C14.7004 12.8132 14.5414 12.9026 14.3757 12.9026H5.62596C5.4602 12.9026 5.30124 12.8132 5.18403 12.6542C5.06682 12.4952 5.00098 12.2795 5.00098 12.0546Z" fill="#545454"/>
<path id="Vector_6" fill-rule="evenodd" clip-rule="evenodd" d="M5.00098 16.2948C5.00098 16.0699 5.06682 15.8542 5.18403 15.6952C5.30124 15.5361 5.4602 15.4468 5.62596 15.4468H17.5006C17.6663 15.4468 17.8253 15.5361 17.9425 15.6952C18.0597 15.8542 18.1256 16.0699 18.1256 16.2948C18.1256 16.5197 18.0597 16.7354 17.9425 16.8944C17.8253 17.0535 17.6663 17.1428 17.5006 17.1428H5.62596C5.4602 17.1428 5.30124 17.0535 5.18403 16.8944C5.06682 16.7354 5.00098 16.5197 5.00098 16.2948ZM5.00098 19.6869C5.00098 19.462 5.06682 19.2463 5.18403 19.0872C5.30124 18.9282 5.4602 18.8389 5.62596 18.8389H10.6258C10.7916 18.8389 10.9505 18.9282 11.0677 19.0872C11.1849 19.2463 11.2508 19.462 11.2508 19.6869C11.2508 19.9118 11.1849 20.1275 11.0677 20.2865C10.9505 20.4456 10.7916 20.5349 10.6258 20.5349H5.62596C5.4602 20.5349 5.30124 20.4456 5.18403 20.2865C5.06682 20.1275 5.00098 19.9118 5.00098 19.6869Z" fill="#545454"/>
</g>
</g>
</svg>
