<svg width="22" height="24" viewBox="0 0 22 24" fill="none" xmlns="http://www.w3.org/2000/svg">
<path id="Vector" d="M14.6364 15.4082C14.6364 14.3372 11.7873 13.4698 8.27273 13.4698M14.6364 15.4082C14.6364 16.4791 11.7873 17.3465 8.27273 17.3465C4.75818 17.3465 1.90909 16.4791 1.90909 15.4082M14.6364 15.4082V20.1929C14.6364 21.2968 11.7873 22.1923 8.27273 22.1923C4.75818 22.1923 1.90909 21.2978 1.90909 20.1929V15.4082M14.6364 15.4082C18.1127 15.4082 21 14.4516 21 13.4698V3.77817M8.27273 13.4698C4.75818 13.4698 1.90909 14.3372 1.90909 15.4082M8.27273 13.4698C4.25636 13.4698 1 12.5133 1 11.5315V6.68567M8.27273 4.74734C4.25636 4.74734 1 5.61474 1 6.68567M1 6.68567C1 7.7566 4.25636 8.624 8.27273 8.624C8.27273 9.60577 11.23 10.5623 14.7064 10.5623C18.1818 10.5623 21 9.60577 21 8.624M21 3.77817C21 2.70725 18.1818 1.83984 14.7064 1.83984C11.23 1.83984 8.41273 2.70725 8.41273 3.77817M21 3.77817C21 4.8491 18.1818 5.71651 14.7064 5.71651C11.2309 5.71651 8.41273 4.8491 8.41273 3.77817M8.41273 3.77817V13.6307" stroke="#545454" stroke-width="2"/>
</svg>
