<svg width="20" height="21" viewBox="0 0 20 21" fill="none" xmlns="http://www.w3.org/2000/svg">
<g id="Group 38">
<path id="Vector" d="M12.9949 0.412109L8.89487 3.75171L9.31045 4.04049L12.9582 1.06923L19.1453 5.51654L15.5965 8.40716L15.7693 8.52723V8.89365L18.549 6.62943L19.1324 7.04882L15.7693 9.78813V10.4154L18.4946 8.19554L19.1324 8.65409L15.7693 11.3934V12.0207L18.4946 9.80081L19.1324 10.2594L15.7693 12.9987V13.6259L19.9872 10.1902L18.9403 9.43781L19.9872 8.58507L18.9403 7.83254L19.9871 6.9798L18.9947 6.26639L20 5.44746L12.9949 0.412109ZM14.3049 2.80602C13.4178 3.37084 12.2362 3.46641 11.4043 3.04054L9.77798 4.36522L15.1289 8.08237L16.6714 6.82602C16.0638 6.21732 16.1144 5.30909 16.7954 4.59637L14.3049 2.80602ZM8.79848 4.78279L5.81789 7.24915L11.5359 11.4262L11.592 11.3808C11.6974 11.2946 11.8463 11.1726 12.0239 11.0269C12.3789 10.7357 12.8488 10.3495 13.3173 9.96427C13.992 9.4094 14.3397 9.12314 14.663 8.85699L8.79848 4.78279ZM13.6672 4.8454H13.6673C13.8022 4.84644 13.9258 4.88312 14.0181 4.94947C14.0719 4.98808 14.1135 5.03571 14.1408 5.08963C14.168 5.14356 14.1803 5.20273 14.1769 5.26375C14.1735 5.32478 14.1545 5.38647 14.1209 5.44531C14.0874 5.50414 14.04 5.55896 13.9814 5.60664C13.9229 5.65432 13.8544 5.69393 13.7797 5.7232C13.7051 5.75248 13.6258 5.77084 13.5464 5.77725C13.4671 5.78366 13.3891 5.77799 13.3171 5.76056C13.2451 5.74313 13.1803 5.71428 13.1266 5.67567C13.0181 5.59769 12.9611 5.48465 12.9679 5.36143C12.9748 5.23821 13.0451 5.11489 13.1633 5.0186C13.2304 4.9639 13.3106 4.91992 13.3979 4.88993C13.4851 4.85994 13.5772 4.84471 13.6672 4.8454ZM4.4573 7.36639L0.0128604 10.9864L1.00531 11.6998L0 12.5188L1.04688 13.2712L0 14.124L1.04688 14.8765L0 15.7293L7.00514 20.7646L11.2345 17.3195V16.6924L7.04187 20.1075L0.854776 15.6601L1.45584 15.1705L7.00514 19.1593L11.2345 15.7143V15.0872L7.04187 18.5023L0.854776 14.0549L1.45584 13.5653L7.00514 17.5541L11.2345 14.1091V13.482L7.04187 16.897L0.854776 12.4497L1.41431 11.9938L7.01809 16.0218L11.2345 12.5873V12.3171L11.0034 12.1483L7.05464 15.3646L0.867721 10.9173L4.86331 7.66282L4.45726 7.36623L4.4573 7.36639ZM5.32 7.9967L3.3416 9.60807C3.94921 10.2167 3.89861 11.1249 3.21755 11.8377L5.70818 13.6281C6.59521 13.0632 7.77668 12.9677 8.60861 13.3935L10.5467 11.8148L5.31992 7.99665L5.32 7.9967ZM15.0103 9.7191C14.6711 9.99825 14.372 10.2446 13.7301 10.7726C13.2988 11.1273 12.8675 11.4817 12.436 11.8359C12.2582 11.9817 12.109 12.104 12.0026 12.1908C11.9988 12.194 11.9973 12.195 11.9936 12.1981V16.7956L15.0104 14.2226L15.0103 9.7191ZM6.5355 10.6544C6.67037 10.6555 6.79401 10.6922 6.88632 10.7586C6.9948 10.8366 7.05188 10.9496 7.045 11.0728C7.03812 11.196 6.96785 11.3194 6.84964 11.4157C6.73143 11.5119 6.57498 11.5733 6.4147 11.5862C6.25442 11.5992 6.10343 11.5626 5.99494 11.4847C5.88646 11.4067 5.82938 11.2937 5.83626 11.1704C5.84314 11.0472 5.91342 10.9239 6.03163 10.8276C6.09876 10.7729 6.17895 10.7289 6.2662 10.699C6.35345 10.669 6.44551 10.6538 6.5355 10.6545V10.6544Z" fill="#545454"/>
</g>
</svg>
