<svg width="20" height="21" viewBox="0 0 20 21" fill="none" xmlns="http://www.w3.org/2000/svg">
<path id="Vector" d="M4.58333 5.35836C4.58333 4.93635 4.648 4.51847 4.77363 4.12858C4.89927 3.7387 5.08342 3.38444 5.31557 3.08603C5.54771 2.78763 5.82331 2.55092 6.12662 2.38942C6.42994 2.22793 6.75503 2.14481 7.08333 2.14481C7.41164 2.14481 7.73673 2.22793 8.04004 2.38942C8.34336 2.55092 8.61895 2.78763 8.8511 3.08603C9.08325 3.38444 9.2674 3.7387 9.39303 4.12858C9.51867 4.51847 9.58333 4.93635 9.58333 5.35836C9.58333 6.21064 9.31994 7.02802 8.8511 7.63068C8.38226 8.23334 7.74637 8.57191 7.08333 8.57191C6.42029 8.57191 5.78441 8.23334 5.31557 7.63068C4.84673 7.02802 4.58333 6.21064 4.58333 5.35836ZM7.08333 0.00244141C5.97826 0.00244141 4.91846 0.566724 4.13705 1.57115C3.35565 2.57558 2.91667 3.93788 2.91667 5.35836C2.91667 6.77883 3.35565 8.14113 4.13705 9.14556C4.91846 10.15 5.97826 10.7143 7.08333 10.7143C8.1884 10.7143 9.24821 10.15 10.0296 9.14556C10.811 8.14113 11.25 6.77883 11.25 5.35836C11.25 3.93788 10.811 2.57558 10.0296 1.57115C9.24821 0.566724 8.1884 0.00244141 7.08333 0.00244141ZM12.9167 0.00244141H12.0833V2.14481H12.9167C13.245 2.14481 13.5701 2.22793 13.8734 2.38942C14.1767 2.55092 14.4523 2.78763 14.6844 3.08603C14.9166 3.38444 15.1007 3.7387 15.2264 4.12858C15.352 4.51847 15.4167 4.93635 15.4167 5.35836C15.4167 5.78037 15.352 6.19824 15.2264 6.58813C15.1007 6.97801 14.9166 7.33227 14.6844 7.63068C14.4523 7.92909 14.1767 8.16579 13.8734 8.32729C13.5701 8.48879 13.245 8.57191 12.9167 8.57191H12.0833V10.7143H12.9167C14.0217 10.7143 15.0815 10.15 15.8629 9.14556C16.6443 8.14113 17.0833 6.77883 17.0833 5.35836C17.0833 3.93788 16.6443 2.57558 15.8629 1.57115C15.0815 0.566724 14.0217 0.00244141 12.9167 0.00244141ZM0 18.2126C0 16.7921 0.438987 15.4298 1.22039 14.4254C2.00179 13.4209 3.0616 12.8566 4.16667 12.8566H10C11.1051 12.8566 12.1649 13.4209 12.9463 14.4254C13.7277 15.4298 14.1667 16.7921 14.1667 18.2126V20.3549H12.5V18.2126C12.5 17.3603 12.2366 16.5429 11.7678 15.9402C11.2989 15.3376 10.663 14.999 10 14.999H4.16667C3.50363 14.999 2.86774 15.3376 2.3989 15.9402C1.93006 16.5429 1.66667 17.3603 1.66667 18.2126V20.3549H0V19.2837V18.2126ZM20 18.2126C20 17.5092 19.8922 16.8127 19.6828 16.1629C19.4734 15.5131 19.1665 14.9227 18.7796 14.4254C18.3927 13.928 17.9334 13.5335 17.4278 13.2643C16.9223 12.9952 16.3805 12.8566 15.8333 12.8566H15V14.999H15.8333C16.4964 14.999 17.1323 15.3376 17.6011 15.9402C18.0699 16.5429 18.3333 17.3603 18.3333 18.2126V20.3549H20V19.2837V18.2126Z" fill="#545454"/>
</svg>
