<svg width="39" height="41" viewBox="0 0 39 41" fill="none" xmlns="http://www.w3.org/2000/svg">
<g id="Group 11">
<g id="Group 10">
<path id="Vector" d="M34.4781 28.7272V18.8224C33.4007 19.0129 32.3232 19.2034 31.2458 19.2034H30.1684V30.632H8.61953V17.2986C8.61953 11.9653 13.3603 7.77481 19.3939 7.77481C19.6094 5.29862 20.9024 3.20338 22.6263 1.4891C21.9798 0.72719 20.6869 0.155762 19.3939 0.155762C17.0236 0.155762 15.0842 1.87005 15.0842 3.96529V4.53671C8.61953 6.251 4.30976 11.3939 4.30976 17.2986V28.7272L0 32.5367V34.4415H38.7879V32.5367L34.4781 28.7272ZM15.0842 36.3462C15.0842 38.4415 17.0236 40.1558 19.3939 40.1558C21.7643 40.1558 23.7037 38.4415 23.7037 36.3462H15.0842ZM38.7879 8.72719C38.7879 12.3462 35.3401 15.3939 31.2458 15.3939C27.1515 15.3939 23.7037 12.3462 23.7037 8.72719C23.7037 5.10814 27.1515 2.06052 31.2458 2.06052C35.3401 2.06052 38.7879 5.10814 38.7879 8.72719Z" fill="#0192E0"/>
</g>
</g>
</svg>
