<svg width="40" height="41" viewBox="0 0 40 41" fill="none" xmlns="http://www.w3.org/2000/svg">
<path id="Vector" d="M36.7318 21.3403C36.4054 20.9754 36.2254 20.5063 36.2254 20.0205C36.2254 19.5348 36.4054 19.0656 36.7318 18.7007L39.3376 15.8211C39.6247 15.5065 39.803 15.1106 39.8469 14.6902C39.8908 14.2699 39.798 13.8467 39.5818 13.4814L35.5104 6.56234C35.2964 6.19743 34.9706 5.90818 34.5795 5.73582C34.1884 5.56347 33.7518 5.5168 33.3321 5.60247L29.5049 6.36237C29.0179 6.46121 28.511 6.38154 28.0797 6.1384C27.6484 5.89525 27.3226 5.50545 27.1638 5.04255L25.922 1.38304C25.7854 0.985855 25.5252 0.640873 25.1782 0.39686C24.8312 0.152848 24.4148 0.0221452 23.9881 0.0232274H15.8451C15.4012 0.000466377 14.9619 0.121067 14.5943 0.366609C14.2267 0.612151 13.951 0.969137 13.8094 1.38304L12.6693 5.04255C12.5106 5.50545 12.1848 5.89525 11.7535 6.1384C11.3222 6.38154 10.8152 6.46121 10.3282 6.36237L6.39925 5.60247C6.00137 5.54724 5.59575 5.60891 5.23348 5.77972C4.87121 5.95054 4.56851 6.22284 4.36351 6.56234L0.292029 13.4814C0.0704591 13.8426 -0.0291659 14.2635 0.00739696 14.6837C0.0439599 15.1039 0.214838 15.502 0.495603 15.8211L3.08099 18.7007C3.40736 19.0656 3.58735 19.5348 3.58735 20.0205C3.58735 20.5063 3.40736 20.9754 3.08099 21.3403L0.495603 24.2199C0.214838 24.539 0.0439599 24.9371 0.00739696 25.3573C-0.0291659 25.7776 0.0704591 26.1984 0.292029 26.5596L4.36351 33.4787C4.57746 33.8436 4.90322 34.1328 5.29436 34.3052C5.68549 34.4776 6.12203 34.5242 6.54176 34.4385L10.3689 33.6786C10.8559 33.5798 11.3629 33.6595 11.7942 33.9026C12.2255 34.1458 12.5513 34.5356 12.7101 34.9985L13.9519 38.658C14.0935 39.0719 14.3692 39.4289 14.7368 39.6744C15.1044 39.9199 15.5437 40.0406 15.9876 40.0178H24.1306C24.5573 40.0189 24.9737 39.8882 25.3207 39.6442C25.6678 39.4001 25.9279 39.0552 26.0645 38.658L27.3063 34.9985C27.4651 34.5356 27.7909 34.1458 28.2222 33.9026C28.6535 33.6595 29.1604 33.5798 29.6474 33.6786L33.4746 34.4385C33.8943 34.5242 34.3309 34.4776 34.722 34.3052C35.1131 34.1328 35.4389 33.8436 35.6529 33.4787L39.7243 26.5596C39.9405 26.1943 40.0333 25.7711 39.9894 25.3508C39.9455 24.9304 39.7672 24.5346 39.4801 24.2199L36.7318 21.3403ZM33.6985 24.02L35.3271 25.8197L32.7214 30.2591L30.3192 29.7792C28.853 29.4848 27.3278 29.7294 26.0332 30.4667C24.7385 31.204 23.7644 32.3825 23.2959 33.7786L22.5223 36.0183H17.3108L16.578 33.7386C16.1094 32.3425 15.1354 31.164 13.8407 30.4267C12.546 29.6894 11.0208 29.4448 9.55465 29.7392L7.15248 30.2191L4.50601 25.7997L6.13461 24C7.1361 22.9001 7.68977 21.4762 7.68977 20.0005C7.68977 18.5248 7.1361 17.101 6.13461 16.0011L4.50601 14.2013L7.11176 9.8019L9.51394 10.2818C10.9801 10.5762 12.5053 10.3316 13.8 9.59432C15.0947 8.85706 16.0687 7.6785 16.5372 6.28238L17.3108 4.02268H22.5223L23.2959 6.30237C23.7644 7.6985 24.7385 8.87706 26.0332 9.61432C27.3278 10.3516 28.853 10.5962 30.3192 10.3018L32.7214 9.82189L35.3271 14.2613L33.6985 16.061C32.7083 17.1584 32.1615 18.5741 32.1615 20.0405C32.1615 21.5069 32.7083 22.9226 33.6985 24.02ZM19.9166 12.0216C18.306 12.0216 16.7317 12.4907 15.3926 13.3697C14.0535 14.2486 13.0098 15.4978 12.3935 16.9595C11.7771 18.4211 11.6159 20.0294 11.9301 21.581C12.2443 23.1327 13.0198 24.5579 14.1586 25.6766C15.2974 26.7953 16.7484 27.5571 18.328 27.8657C19.9075 28.1744 21.5448 28.016 23.0328 27.4105C24.5207 26.8051 25.7924 25.7799 26.6872 24.4645C27.582 23.149 28.0595 21.6025 28.0595 20.0205C28.0595 17.8991 27.2016 15.8645 25.6745 14.3644C24.1474 12.8643 22.0762 12.0216 19.9166 12.0216ZM19.9166 24.02C19.1113 24.02 18.3241 23.7854 17.6546 23.3459C16.985 22.9065 16.4632 22.2818 16.155 21.551C15.8469 20.8202 15.7662 20.0161 15.9233 19.2403C16.0804 18.4644 16.4682 17.7518 17.0376 17.1925C17.607 16.6331 18.3325 16.2522 19.1223 16.0979C19.9121 15.9436 20.7307 16.0228 21.4747 16.3255C22.2186 16.6282 22.8545 17.1408 23.3019 17.7985C23.7493 18.4562 23.9881 19.2295 23.9881 20.0205C23.9881 21.0812 23.5591 22.0985 22.7955 22.8486C22.032 23.5986 20.9964 24.02 19.9166 24.02Z" fill="#0192E0"/>
</svg>
