<svg width="23" height="23" viewBox="0 0 23 23" fill="none" xmlns="http://www.w3.org/2000/svg">
<g id="formkit:twitter" clip-path="url(#clip0_200_15)">
<path id="Vector" d="M11.5 0C17.8579 0 23 5.14214 23 11.5C23 17.8579 17.8579 23 11.5 23C5.14214 23 0 17.8579 0 11.5C0 5.14214 5.14214 0 11.5 0ZM9.39714 17.5621C14.49 17.5621 17.2829 13.34 17.2829 9.67643V9.315C17.825 8.92071 18.3014 8.42786 18.6629 7.86929C18.17 8.08286 17.6279 8.23071 17.0693 8.31286C17.6443 7.96786 18.0879 7.42571 18.285 6.785C17.7429 7.09714 17.1514 7.32714 16.5271 7.45857C16.0179 6.91643 15.295 6.58786 14.5064 6.58786C12.9786 6.58786 11.73 7.83643 11.73 9.36429C11.73 9.57786 11.7464 9.79143 11.8121 9.98857C9.51214 9.87357 7.45857 8.77286 6.095 7.09714C5.865 7.50786 5.71714 7.98429 5.71714 8.49357C5.71714 9.44643 6.21 10.3007 6.94929 10.7936C6.48929 10.7936 6.06214 10.6621 5.70071 10.4486V10.4814C5.70071 11.8286 6.65357 12.9457 7.91857 13.2086C7.68857 13.2743 7.44214 13.3071 7.19571 13.3071C7.015 13.3071 6.85071 13.2907 6.67 13.2579C7.015 14.3586 8.05 15.1636 9.24929 15.18C8.29643 15.9193 7.09714 16.3629 5.79929 16.3629C5.56929 16.3629 5.35571 16.3629 5.14214 16.33C6.35786 17.1186 7.82 17.5786 9.38071 17.5786" fill="#1877F2"/>
</g>
<defs>
<clipPath id="clip0_200_15">
<rect width="23" height="23" fill="white"/>
</clipPath>
</defs>
</svg>
